<?xml version="1.0" encoding="utf-8"?>
<!-- Generator: Adobe Illustrator 25.2.0, SVG Export Plug-In . SVG Version: 6.00 Build 0)  -->
<svg version="1.1" id="Calque_1" xmlns="http://www.w3.org/2000/svg" xmlns:xlink="http://www.w3.org/1999/xlink" x="0px" y="0px"
	 viewBox="0 0 1024 1024" style="enable-background:new 0 0 1024 1024;" xml:space="preserve">
<style type="text/css">
	.st0{fill:#1D4ED8;}
	.st1{fill:#FFFFFF;}
	.st2{fill:none;stroke:#FFFFFF;stroke-width:4;stroke-linecap:round;stroke-linejoin:round;stroke-miterlimit:10;}
	.st3{fill:#3C3C3B;stroke:#FFFFFF;stroke-width:2;stroke-miterlimit:10;}
	.st4{fill:#FFFFFF;stroke:#1D4ED8;stroke-miterlimit:10;}
	.st5{fill:#FFFFFF;stroke:#1D4ED8;stroke-width:6;stroke-miterlimit:10;}
	.st6{fill:#FFFFFF;stroke:#FFFFFF;stroke-miterlimit:10;}
</style>
<rect y="-1.8" class="st0" width="1029" height="1044.7"/>
<g>
	<path class="st1" d="M283.2,747.2c-4.1,0-8-0.4-11.9-1.2s-7.5-2-10.9-3.5s-6.4-3.4-9.2-5.6l7.4-13c3.3,2.6,7.1,4.7,11.3,6.1
		c4.3,1.4,8.7,2.2,13.2,2.2c5.2,0,9.3-0.9,12.2-2.6c2.9-1.7,4.3-4.2,4.3-7.4v-0.1c0-2.4-0.7-4.3-2.2-5.5c-1.4-1.3-3.3-2.2-5.7-2.8
		c-2.4-0.6-4.9-1.1-7.7-1.5c-3.3-0.5-6.7-1.1-10.1-1.9s-6.5-1.9-9.4-3.6c-2.8-1.6-5.1-4-6.9-7c-1.7-3-2.6-7.1-2.6-12.1v-0.1
		c0-8.2,2.7-14.5,8.2-18.9c5.5-4.5,13.2-6.7,23.1-6.7c4.6,0,9.3,0.8,14,2.3c4.8,1.5,9.2,3.7,13.3,6.5l-6.8,13.3
		c-3.3-2.3-6.7-4-10.3-5.2c-3.6-1.2-7-1.8-10.3-1.8c-4.9,0-8.7,0.8-11.4,2.4c-2.7,1.6-4,3.8-4,6.7v0.1c0,2.7,0.8,4.7,2.4,6.1
		c1.6,1.4,3.7,2.4,6.3,3.1c2.6,0.7,5.3,1.3,8.3,1.9c3.3,0.6,6.5,1.4,9.8,2.3c3.2,0.9,6.2,2.2,8.9,3.9s4.8,4,6.4,6.9
		s2.4,6.8,2.4,11.5v0.1c0,8-2.8,14.3-8.5,18.7C301.5,745,293.5,747.2,283.2,747.2z"/>
	<path class="st1" d="M355.1,747.2c-8.8,0-15.6-2.3-20.5-7c-4.9-4.6-7.3-11.2-7.3-19.7v-6.7c0-8.9,2.3-15.7,7-20.6
		c4.7-4.9,11.2-7.3,19.7-7.3c8,0,14.2,2.9,18.6,8.7s6.6,14,6.6,24.5v3.9h-41.5v-10.6h26.9l-0.2-1.4c-0.4-3.4-1.5-6.1-3.3-7.9
		c-1.8-1.9-4.1-2.8-7.1-2.8c-3.9,0-6.8,1.1-9,3.4c-2.1,2.3-3.2,5.5-3.2,9.6v7.6c0,4.1,1.2,7.2,3.5,9.4s5.6,3.3,9.7,3.3
		c2.1,0,4.3-0.4,6.4-1.1c2.1-0.7,4-1.8,5.7-3.2l10.5,9.1c-3.2,2.8-6.7,5-10.6,6.6C363,746.4,359.1,747.2,355.1,747.2z"/>
	<path class="st1" d="M393.2,746.3v-59.6h17.2v59.6H393.2z M427.4,703.3c-0.7-0.8-1.7-1.3-2.8-1.7c-1.1-0.4-2.5-0.6-3.9-0.6
		c-3.2,0-5.7,1-7.5,3.1c-1.8,2-2.7,4.9-2.7,8.5l-1.2-15.5c1.7-3.5,3.8-6.3,6.5-8.3s5.6-3,8.8-3c2.5,0,4.8,0.4,6.9,1.2
		s3.8,1.9,5.3,3.5L427.4,703.3z"/>
	<path class="st1" d="M466.3,724.1l12.5-37.4h16L472,746.3h-11.3l-22.8-59.6h16L466.3,724.1z"/>
	<path class="st1" d="M503.3,678.6v-15.7h16v15.7H503.3z M503.3,746.3v-59.6h16v59.6H503.3z"/>
	<path class="st1" d="M559.9,747.2c-8.7,0-15.4-2.4-20.2-7.2s-7.2-11.6-7.2-20.4v-6.4c0-8.7,2.4-15.4,7.2-20.2s11.5-7.1,20.2-7.1
		c5,0,9.5,0.8,13.5,2.5c4,1.6,7.2,4,9.6,7.1l-10.3,9.9c-1.4-1.3-3.2-2.4-5.2-3.1c-2-0.7-4.1-1.1-6.3-1.1c-4.1,0-7.2,1.1-9.4,3.2
		c-2.2,2.1-3.3,5.1-3.3,9v6.4c0,4,1.1,7.1,3.3,9.2c2.2,2.2,5.4,3.2,9.4,3.2c2.2,0,4.3-0.4,6.3-1.2s3.7-2,5.2-3.4L583,738
		c-2.4,3-5.6,5.3-9.6,6.9S564.9,747.2,559.9,747.2z"/>
	<path class="st1" d="M619.8,747.2c-8.8,0-15.6-2.3-20.5-7c-4.9-4.6-7.3-11.2-7.3-19.7v-6.7c0-8.9,2.3-15.7,7-20.6
		c4.7-4.9,11.2-7.3,19.7-7.3c8,0,14.2,2.9,18.6,8.7c4.4,5.8,6.6,14,6.6,24.5v3.9h-41.5v-10.6h26.9l-0.2-1.4
		c-0.4-3.4-1.5-6.1-3.3-7.9c-1.8-1.9-4.1-2.8-7.1-2.8c-3.9,0-6.8,1.1-9,3.4c-2.1,2.3-3.2,5.5-3.2,9.6v7.6c0,4.1,1.2,7.2,3.5,9.4
		s5.6,3.3,9.7,3.3c2.1,0,4.3-0.4,6.4-1.1c2.1-0.7,4-1.8,5.7-3.2l10.5,9.1c-3.2,2.8-6.7,5-10.6,6.6
		C627.8,746.4,623.9,747.2,619.8,747.2z"/>
	<path class="st1" d="M681.2,747.2c-5.5,0-10.6-0.7-15.6-2.2c-4.9-1.4-9.1-3.4-12.6-6l9.9-12.1c2.9,1.8,6,3.3,9.2,4.2
		c3.2,1,6.2,1.5,9.1,1.5c3.7,0,6.6-0.4,8.7-1.2c2.1-0.8,3.1-2,3.1-3.4c0-1.8-0.7-3-2.1-3.6c-1.4-0.7-3.3-1.1-5.6-1.3
		s-4.7-0.5-7.3-0.8s-5.2-0.8-7.7-1.2c-2.6-0.5-4.9-1.3-7-2.4c-2.1-1.1-3.8-2.7-5-4.9s-1.9-5.2-1.9-9c0-6,2.2-10.7,6.5-13.9
		c4.3-3.3,10.4-4.9,18.4-4.9c4.6,0,9.2,0.7,13.7,2s8.5,3.2,12.1,5.7l-9.5,11.4c-2.7-1.5-5.4-2.6-8.3-3.4c-2.9-0.8-5.7-1.2-8.3-1.2
		c-3.2,0-5.7,0.4-7.5,1.1c-1.8,0.7-2.7,1.7-2.7,3.1c0,1.1,0.6,2,1.9,2.6c1.2,0.6,2.9,1,4.9,1.2s4.2,0.5,6.5,0.8
		c2.7,0.3,5.4,0.7,8.1,1.1c2.7,0.4,5.2,1.2,7.5,2.4c2.3,1.1,4.1,2.9,5.5,5.2s2.1,5.5,2.1,9.6c0,6.2-2.3,11.1-6.8,14.5
		S689.5,747.2,681.2,747.2z"/>
</g>
<rect x="718.5" y="703" class="st1" width="83.7" height="8.3"/>
<rect x="718.5" y="717.2" class="st1" width="83.7" height="8.3"/>
<rect x="718.5" y="731.5" class="st1" width="83.7" height="8.3"/>
<g>
	<path class="st1" d="M153.1,593.3V491.7h22.8v101.6H153.1z M163.7,552.2v-18.4h70.4v18.4H163.7z M219.3,593.3V491.7h22.8v101.6
		H219.3z"/>
	<path class="st1" d="M290.5,594.4c-9.2,0-16.1-1.8-20.7-5.5s-6.9-9.3-6.9-16.9c0-7.2,2.6-12.6,7.7-16.2c5.1-3.6,12.8-5.3,23.1-5.3
		h21.6l1.2,14.6h-22.7c-3.4,0-6,0.6-7.7,1.7c-1.7,1.1-2.6,2.9-2.6,5.2c0,2.4,1.1,4.1,3.3,5.3c2.2,1.1,5.4,1.7,9.8,1.7
		c6,0,10.6-0.6,13.6-1.7c3-1.2,4.5-3,4.5-5.4l1.7,10.5c-0.3,2.7-1.8,5-4.4,6.8s-5.8,3.1-9.6,4C298.4,593.9,294.5,594.4,290.5,594.4z
		 M314.5,593.3v-46c0-3.4-1.3-5.9-4-7.8c-2.7-1.8-6.4-2.7-11.3-2.7c-3.2,0-6.4,0.4-9.6,1.3c-3.2,0.9-6,2.1-8.4,3.7l-14.1-11.7
		c3.4-3.3,8-5.9,13.6-7.7c5.7-1.8,11.9-2.8,18.8-2.8c11.4,0,20.2,2.4,26.4,7.1c6.2,4.7,9.3,11.3,9.3,19.9v46.7H314.5z"/>
	<path class="st1" d="M390.7,594.4c-7.8,0-15.1-0.9-22.2-2.6c-7-1.7-13-4.2-17.9-7.3l14.1-14.7c4.2,2.2,8.5,4,13.1,5.2
		c4.5,1.2,8.9,1.8,13,1.8c5.3,0,9.5-0.5,12.4-1.5s4.4-2.4,4.4-4.2c0-2.1-1-3.6-3-4.4c-2-0.8-4.7-1.3-7.9-1.6
		c-3.3-0.3-6.7-0.6-10.4-1c-3.7-0.4-7.4-0.9-11-1.5s-6.9-1.5-9.9-2.9c-3-1.3-5.4-3.3-7.2-6c-1.8-2.7-2.7-6.3-2.7-10.9
		c0-7.3,3.1-13,9.2-17c6.2-4,14.9-6,26.1-6c6.6,0,13.1,0.8,19.5,2.4c6.4,1.6,12.1,3.9,17.2,6.9L413.9,543c-3.8-1.8-7.7-3.1-11.8-4.1
		c-4.1-1-8-1.5-11.8-1.5c-4.6,0-8.2,0.4-10.7,1.3c-2.6,0.9-3.8,2.1-3.8,3.7c0,1.4,0.9,2.4,2.7,3.1c1.8,0.7,4.1,1.2,7,1.5
		s6,0.6,9.3,0.9c3.8,0.4,7.7,0.8,11.6,1.4c3.9,0.5,7.4,1.5,10.7,2.9s5.9,3.5,7.9,6.4s3,6.8,3,11.7c0,7.6-3.2,13.5-9.7,17.7
		C411.5,592.3,402.4,594.4,390.7,594.4z"/>
	<path class="st1" d="M476.8,510.2v-18.4h88.6v18.4H476.8z M509.7,593.3V500h22.8v93.3H509.7z"/>
	<path class="st1" d="M601.6,594.4c-12.5,0-22.2-2.8-29.1-8.5c-6.9-5.7-10.4-13.7-10.4-24v-8.2c0-10.8,3.3-19.2,9.9-25.1
		c6.6-5.9,16-8.9,28.1-8.9c11.4,0,20.2,3.5,26.5,10.6c6.2,7.1,9.4,17,9.4,29.8v4.8h-59V552h38.3l-0.4-1.7c-0.6-4.1-2.2-7.4-4.7-9.7
		s-5.9-3.5-10.1-3.5c-5.5,0-9.7,1.4-12.8,4.1c-3,2.7-4.5,6.6-4.5,11.7v9.2c0,4.9,1.6,8.8,4.9,11.5c3.3,2.7,7.9,4.1,13.8,4.1
		c3,0,6.1-0.5,9.1-1.4s5.7-2.2,8.1-3.9l14.9,11.1c-4.5,3.4-9.5,6.1-15.1,8C612.9,593.4,607.3,594.4,601.6,594.4z"/>
	<path class="st1" d="M692.4,594.4c-12.4,0-22-2.9-28.8-8.8c-6.8-5.9-10.2-14.1-10.2-24.8V553c0-10.6,3.4-18.8,10.2-24.6
		s16.4-8.7,28.8-8.7c7.1,0,13.5,1,19.3,3c5.7,2,10.3,4.9,13.7,8.6l-14.7,12c-2.1-1.6-4.5-2.9-7.4-3.8c-2.9-0.9-5.8-1.4-8.9-1.4
		c-5.8,0-10.2,1.3-13.4,3.9c-3.2,2.6-4.7,6.2-4.7,10.9v7.8c0,4.8,1.6,8.6,4.7,11.2c3.2,2.6,7.6,3.9,13.4,3.9c3.1,0,6.1-0.5,8.9-1.5
		c2.9-1,5.3-2.4,7.4-4.2l14.7,12.7c-3.4,3.6-7.9,6.4-13.7,8.4C705.9,593.4,699.5,594.4,692.4,594.4z"/>
	<path class="st1" d="M740.7,593.3V491.7h22.8v101.6H740.7z M790.6,593.3v-43.9c0-3.6-1.2-6.3-3.6-8.3c-2.4-1.9-5.8-2.9-10.3-2.9
		c-4.2,0-7.5,1-9.8,3s-3.5,4.8-3.5,8.3l-1.7-16.1c2.5-4.4,5.5-7.8,9.1-10.1c3.6-2.4,8.2-3.6,13.9-3.6c9.1,0,16.1,2.6,21.1,7.7
		c5,5.1,7.5,12.4,7.5,21.8v44L790.6,593.3L790.6,593.3z"/>
</g>
<g>
	<g>
		<line class="st2" x1="776.1" y1="441.2" x2="773" y2="425.2"/>
		<line class="st2" x1="759.9" y1="441.4" x2="764" y2="425.3"/>
		<line class="st2" x1="744.7" y1="437.2" x2="755.7" y2="424.3"/>
		<line class="st2" x1="732.5" y1="429.3" x2="748.8" y2="418.7"/>
		<line class="st2" x1="724.6" y1="418.6" x2="744.4" y2="412.7"/>
		<line class="st2" x1="722.1" y1="406.2" x2="743" y2="405.8"/>
		<line class="st2" x1="725.1" y1="393.7" x2="744.7" y2="398.9"/>
		<line class="st2" x1="733.4" y1="382.7" x2="749.3" y2="392.7"/>
		<line class="st2" x1="745.9" y1="374.3" x2="756.2" y2="388.1"/>
		<line class="st2" x1="761.2" y1="369.6" x2="764.7" y2="385.5"/>
		<line class="st2" x1="777.5" y1="369.2" x2="773.7" y2="385.2"/>
		<line class="st2" x1="792.7" y1="373.1" x2="782.2" y2="387.4"/>
		<line class="st2" x1="805.1" y1="380.8" x2="789.1" y2="391.7"/>
		<line class="st2" x1="813.2" y1="391.5" x2="793.6" y2="397.6"/>
		<line class="st2" x1="816.1" y1="403.8" x2="795.2" y2="404.5"/>
	</g>
	<path class="st3" d="M968.1,448.9l-195-45.6c-4.1-1-7.9,2.5-6,5.5l88.7,141.5c2,3.2,8.2,2.5,9.3-1.1l16.3-56.1l41.6,27.4
		c5.4,3.6,13.8,3,18.6-1.4l0,0c4.8-4.4,4.4-10.8-1.1-14.4l-41.6-27.4l69.3-21.2C972.6,454.8,972.6,449.9,968.1,448.9z"/>
</g>
<g>
	<path class="st4" d="M662.3,190.7h-97.8v-15.2h97.8V190.7z M662.3,200.6h-97.8v15.2h97.8V200.6z M662.3,131.6h-97.7v33.5h97.7
		V131.6z M693.5,95.6v359.1c0,5.4-4.4,9.8-9.7,9.8H543.1c-5.4,0-9.7-4.4-9.7-9.8V95.6c0-5.4,4.3-9.8,9.7-9.8h140.7
		C689.2,85.8,693.5,90.2,693.5,95.6z M674.1,105.4H552.8v339.5h121.3V105.4z M662.3,225.8h-97.8V241h97.8V225.8z M646.4,339.1
		c0,17.5-14.1,31.6-31.4,31.6c-17.4,0-31.4-14.1-31.4-31.6s14.1-31.6,31.4-31.6C632.4,307.4,646.4,321.6,646.4,339.1z M635.1,339.1
		c0-11.1-9-20.2-20.1-20.2s-20.1,9.1-20.1,20.2c0,11.2,9,20.2,20.1,20.2S635.1,350.2,635.1,339.1z M506.7,154.7v203.5
		c0,12.3-9.8,22.2-21.9,22.2H375.6c0,0-6.2,44.4,33.1,44.4V447h-33.1h-66.2h-33.1v-22.2c37.9,0,33.1-44.4,33.1-44.4H200.2
		c-12.1,0-21.9-9.9-21.9-22.2V154.7c0-12.3,9.8-22.2,21.9-22.2h284.6C496.9,132.6,506.7,142.4,506.7,154.7z M483.2,156.1H201.7
		v171.6h281.5l0,0V156.1z"/>
</g>
<path id="XMLID_680_" class="st5" d="M379.8,263.5c-3.1-2-7.2-2.1-10.2-0.2l-31.1,19.8l-46.6-17.3l0.2-47l31.2-19.8
	c3.1-2,4.5-5.5,3.6-9s-3.9-6.1-7.6-6.6c-18.1-2.7-37.2,0.8-53.4,11.1c-24.9,15.8-36.2,43.5-31.8,70.1l-122.2,77.9
	c-15.3,9.7-19.1,29.6-8.5,44.3c5.1,7.1,12.9,12,21.7,13.7s17.9,0,25.2-4.7l122.8-78.2c24.5,13,55.3,13,79.7-2.5
	c16.2-10.3,26.7-25.6,30.8-42.4C384.4,269.2,382.9,265.6,379.8,263.5z M146.5,375.7c-6.4,4.1-15.3,2.4-19.8-3.8
	c-4.5-6.2-2.9-14.6,3.6-18.7c6.4-4.1,15.3-2.4,19.8,3.8C154.6,363.2,153,371.6,146.5,375.7z"/>
<path class="st6" d="M352.8,206.2l1.8-0.3L352.8,206.2z M352,203.8l-1.6,0.8l0,0L352,203.8z M354.2,210.5l1.4-1l0,0L354.2,210.5z
	 M357.7,211.4l-0.4-1.5l0,0L357.7,211.4z M362.1,208.6l1.3,1.1l0,0L362.1,208.6z M364.5,207l0.7,1.4L364.5,207z M367.1,206.9
	l0.6-1.4l0,0L367.1,206.9z M369.6,208.3l-1.2,1.2l0,0L369.6,208.3z M373,210.8l1.2-1.2l0,0L373,210.8z M375.2,212.6l1.6-0.7l0,0
	L375.2,212.6z M375.5,214.7l1.8,0.3l0,0L375.5,214.7z M373.9,216.9l-1.5-0.8l0,0L373.9,216.9z M371.1,220.8l-1.8-0.1l0,0
	L371.1,220.8z M372.8,223.5l-1,1.3L372.8,223.5z M378.2,224l0.1-1.5L378.2,224z M381.3,224.3l0.7-1.4l0,0L381.3,224.3z M383.1,225.7
	l1.7-0.7l0,0L383.1,225.7z M383.8,234.5l-1.8-0.4l0,0L383.8,234.5z M382.2,236.2l0.9,1.3l0,0L382.2,236.2z M379.2,236.9l-0.3-1.5
	h-0.1h-0.1L379.2,236.9z M379.2,236.9l0.3,1.5h0.1h0.1L379.2,236.9z M373.9,238.2l-1.2-1.1L373.9,238.2z M372.7,241.2l-1.8,0.3l0,0
	L372.7,241.2z M376,244.7l-1.4,1.1L376,244.7z M377.9,246.6l-1.7,0.6l0,0L377.9,246.6z M377.9,248.7l-1.7-0.5l0,0L377.9,248.7z
	 M376.1,250.8l1.4,1L376.1,250.8z M373,253.8l-1.4-1l0,0L373,253.8z M370.8,255.6l0.8,1.3l0,0L370.8,255.6z M368.2,255.9l-0.5,1.5
	l0,0L368.2,255.9z M365.6,254.6l1.1-1.3l0,0L365.6,254.6z M365.6,254.6l-1.1,1.3l0,0L365.6,254.6z M360.8,252.5l0.1-1.5l0,0
	L360.8,252.5z M357.5,253.9l1.5,0.8l0,0L357.5,253.9z M356.8,258.4H355H356.8z M356.4,260.9l-1.7-0.6l0,0L356.4,260.9z M354.6,262.5
	l-0.8-1.4l0,0L354.6,262.5z M343.8,263.3l0.6-1.5l0,0L343.8,263.3z M341.8,262.1l1.6-0.8L341.8,262.1z M341,259.6l-1.8,0.3
	L341,259.6z M339.6,255.3l-1.4,1l0,0L339.6,255.3z M336.1,254.4l-0.4-1.5l0,0L336.1,254.4z M331.7,257.2l-1.3-1.1l0,0l0,0
	L331.7,257.2z M331.7,257.2l1.3,1.1l0,0l0,0L331.7,257.2z M329.3,258.8l0.7,1.4l0,0L329.3,258.8z M326.7,258.9l-0.6,1.4l0,0
	L326.7,258.9z M324.3,257.5l1.2-1.2l0,0L324.3,257.5z M320.8,255l-1.2,1.2l0,0L320.8,255z M318.6,253.3l1.6-0.7L318.6,253.3z
	 M318.3,251.2l1.8,0.3L318.3,251.2z M319.9,249l1.5,0.8L319.9,249z M322.7,245l1.8,0.1L322.7,245z M321,242.3l1-1.3l0,0L321,242.3z
	 M315.6,241.8l-0.1,1.5l0,0L315.6,241.8z M312.6,241.6l0.7-1.4l0,0L312.6,241.6z M310.7,240.1l-1.7,0.7l0,0L310.7,240.1z M310,231.3
	l-1.8-0.4l0,0L310,231.3z M311.6,229.6l-0.9-1.3l0,0L311.6,229.6z M314.6,228.9l-0.1-1.5h-0.1h-0.1L314.6,228.9z M314.6,228.9
	l0.1,1.5h0.1h0.1L314.6,228.9z M319.9,227.6l-1.2-1.1l0,0L319.9,227.6z M321.1,224.7l1.8-0.3l0,0L321.1,224.7z M317.8,221.2l1.4-1.1
	L317.8,221.2z M315.9,219.2l1.7-0.6l0,0L315.9,219.2z M315.9,217.1l-1.7-0.5l0,0L315.9,217.1z M317.7,215l1.4,1l0,0L317.7,215z
	 M320.8,212.1l-1.4-1l0,0L320.8,212.1z M323,210.2l-0.8-1.3l0,0L323,210.2z M325.6,209.9l0.4-1.5L325.6,209.9z M328.2,211.2l1.1-1.3
	l0,0L328.2,211.2z M333,213.3l0.1-1.5L333,213.3z M336.3,211.9l-1.5-0.8L336.3,211.9z M337.1,207.4h1.8l0,0H337.1z M337.4,204.9
	l-1.7-0.6l0,0L337.4,204.9z M339.2,203.3l0.8,1.4l0,0L339.2,203.3z M350,202.5l0.6-1.5l0,0L350,202.5z M354.6,205.9
	c-0.1-0.6-0.2-1.2-0.4-1.6c-0.1-0.5-0.3-0.9-0.6-1.3l-3.2,1.6c0,0.1,0.1,0.2,0.2,0.5s0.2,0.8,0.3,1.4L354.6,205.9z M355.6,209.5
	c0,0-0.2-0.2-0.4-0.9c-0.2-0.6-0.4-1.5-0.6-2.7l-3.6,0.6c0.2,1.2,0.4,2.2,0.7,3c0.2,0.8,0.5,1.5,1.2,2.1L355.6,209.5z M357.3,209.9
	c-0.6,0.1-1.3,0-1.8-0.5l-2.8,2.1c1.3,1.2,3.3,1.7,5.3,1.4L357.3,209.9z M360.8,207.5c-1.1,0.9-1.9,1.5-2.5,1.9s-0.9,0.5-0.9,0.5
	l0.7,3c1-0.2,1.8-0.6,2.5-1.1c0.8-0.5,1.7-1.2,2.7-2.1L360.8,207.5z M363.8,205.6c-0.6,0.2-1.1,0.5-1.5,0.8s-0.9,0.7-1.5,1.1
	l2.5,2.2c0.6-0.5,1-0.8,1.3-1s0.4-0.3,0.5-0.3L363.8,205.6z M367.7,205.4c-1.3-0.3-2.6-0.3-3.9,0.1l1.3,2.8c0.4-0.1,0.9-0.2,1.3,0
	L367.7,205.4z M370.8,207.2c-0.6-0.4-1.1-0.8-1.5-1c-0.5-0.3-0.9-0.5-1.5-0.7l-1.3,2.9c0.1,0,0.2,0.1,0.5,0.3s0.7,0.5,1.3,0.9
	L370.8,207.2z M374.3,209.6l-3.5-2.4l-2.4,2.3l3.5,2.4L374.3,209.6z M376.8,211.8c-0.3-0.4-0.7-0.8-1.1-1.1s-0.9-0.7-1.5-1.1
	l-2.4,2.3c0.6,0.4,1,0.7,1.3,0.9s0.4,0.3,0.4,0.4L376.8,211.8z M377.3,215c0.3-1.1,0.2-2.2-0.4-3.2l-3.3,1.5
	c0.2,0.3,0.3,0.7,0.1,1.1L377.3,215z M375.4,217.7c0.5-0.5,0.8-1,1.1-1.4c0.3-0.4,0.6-0.8,0.7-1.3l-3.6-0.7c0,0.1-0.1,0.2-0.3,0.5
	c-0.2,0.3-0.5,0.7-1,1.2L375.4,217.7z M373,220.9c0-0.1,0.1-0.3,0.5-0.8c0.4-0.6,1-1.3,1.9-2.3l-3-1.7c-0.9,1-1.6,1.9-2.1,2.5
	c-0.5,0.7-0.9,1.4-1,2.2L373,220.9z M373.8,222.3c-0.6-0.3-0.9-0.8-0.8-1.3l-3.7-0.1c-0.1,1.6,0.8,3.2,2.4,4L373.8,222.3z
	 M378.3,222.5c-1.6,0-2.6,0-3.4-0.1s-1-0.1-1.1-0.2l-2,2.6c0.8,0.4,1.8,0.6,2.7,0.6c1,0.1,2.2,0.1,3.7,0.1L378.3,222.5z M382,222.8
	c-0.6-0.2-1.1-0.3-1.7-0.3s-1.2,0-2,0l-0.1,3c0.8,0,1.4,0,1.8,0s0.5,0.1,0.6,0.1L382,222.8z M384.8,225c-0.6-1-1.6-1.8-2.8-2.2
	l-1.5,2.8c0.4,0.1,0.7,0.4,0.9,0.7L384.8,225z M385.4,228c0-0.6-0.1-1.2-0.2-1.6c-0.1-0.5-0.2-0.9-0.5-1.4l-3.3,1.4
	c0,0.1,0.1,0.2,0.1,0.5c0.1,0.3,0.1,0.8,0.1,1.4L385.4,228z M385.7,231.9l-0.3-3.8l-3.7,0.3l0.3,3.8L385.7,231.9z M385.5,235
	c0.2-0.5,0.2-1,0.2-1.4c0-0.5,0-1-0.1-1.7l-3.7,0.3c0.1,0.7,0.1,1.1,0.1,1.4s0,0.4-0.1,0.5L385.5,235z M383.1,237.5
	c1.1-0.6,2-1.5,2.4-2.6l-3.5-0.8c-0.1,0.4-0.4,0.7-0.8,0.9L383.1,237.5z M379.5,238.4c0.8-0.1,1.4-0.2,2-0.3s1.1-0.3,1.6-0.6
	l-1.9-2.6c-0.1,0-0.2,0.1-0.6,0.2s-0.9,0.2-1.7,0.3L379.5,238.4z M379.6,238.4L379.6,238.4l-0.8-2.9l0,0L379.6,238.4z M375.1,239.4
	c0.1,0,0.3-0.2,1-0.3c0.8-0.2,1.8-0.3,3.3-0.6l-0.6-3c-1.5,0.2-2.7,0.4-3.6,0.6s-1.8,0.5-2.6,1L375.1,239.4z M374.5,240.8
	c-0.1-0.5,0.1-1.1,0.6-1.5l-2.4-2.2c-1.5,1.1-2.2,2.8-1.8,4.4L374.5,240.8z M377.4,243.6c-1.1-0.9-1.8-1.5-2.3-2s-0.6-0.7-0.6-0.8
	l-3.6,0.7c0.2,0.8,0.7,1.4,1.3,2c0.6,0.6,1.4,1.3,2.4,2.2L377.4,243.6z M379.6,246c-0.2-0.5-0.6-0.9-0.9-1.2
	c-0.4-0.3-0.8-0.7-1.3-1.2l-2.7,2.1c0.6,0.5,0.9,0.8,1.2,1.1c0.2,0.2,0.3,0.4,0.3,0.4L379.6,246z M379.7,249.2c0.5-1,0.4-2.2,0-3.2
	l-3.4,1.2c0.2,0.3,0.2,0.7,0,1.1L379.7,249.2z M377.5,251.8c0.5-0.5,1-0.9,1.3-1.3c0.4-0.4,0.7-0.8,0.9-1.3l-3.5-0.9
	c0,0.1-0.1,0.2-0.3,0.4c-0.2,0.3-0.6,0.6-1.1,1.1L377.5,251.8z M374.4,254.7l3.1-3l-2.8-1.9l-3.1,3L374.4,254.7z M371.6,256.9
	c0.6-0.2,1-0.6,1.4-0.9s0.8-0.8,1.4-1.3l-2.8-1.9c-0.5,0.5-0.9,0.9-1.2,1.1c-0.3,0.2-0.4,0.3-0.5,0.3L371.6,256.9z M367.8,257.4
	c1.3,0.2,2.7,0.1,3.9-0.5l-1.7-2.7c-0.4,0.2-0.9,0.2-1.3,0.2L367.8,257.4z M364.5,255.9c0.6,0.4,1.2,0.7,1.7,0.9
	c0.5,0.2,1,0.4,1.6,0.6l0.9-3c-0.1,0-0.2-0.1-0.6-0.2c-0.3-0.2-0.8-0.4-1.5-0.8L364.5,255.9z M364.5,255.9L364.5,255.9l2.1-2.5l0,0
	L364.5,255.9z M360.7,254c0.1,0,0.3,0,1,0.4c0.7,0.3,1.5,0.8,2.8,1.5l2.2-2.5c-1.2-0.7-2.2-1.3-3-1.6c-0.8-0.4-1.7-0.7-2.7-0.8
	L360.7,254z M359,254.7c0.4-0.5,1-0.7,1.7-0.7l0.3-3c-2-0.1-3.9,0.7-5,2.1L359,254.7z M358.6,258.4c0.1-1.3,0.1-2.1,0.2-2.8
	s0.2-0.9,0.3-0.9l-3.1-1.6c-0.5,0.7-0.7,1.5-0.8,2.3c-0.1,0.8-0.2,1.8-0.2,3H358.6z M358.1,261.5c0.2-0.5,0.4-0.9,0.4-1.4
	c0.1-0.5,0.1-1,0.1-1.7h-3.7c0,0.7-0.1,1.1-0.1,1.5c0,0.3-0.1,0.4-0.1,0.5L358.1,261.5z M355.4,263.9c1.2-0.5,2.2-1.3,2.7-2.4
	l-3.4-1.1c-0.2,0.3-0.5,0.6-0.9,0.8L355.4,263.9z M351.7,264.5c0.8-0.1,1.5-0.1,2-0.2c0.6-0.1,1.1-0.2,1.7-0.4l-1.6-2.7
	c-0.1,0-0.2,0.1-0.6,0.1c-0.4,0.1-0.9,0.1-1.8,0.2L351.7,264.5z M347,264.8l4.6-0.4l-0.2-3l-4.6,0.4L347,264.8z M343.2,264.8
	c0.6,0.1,1.2,0.2,1.7,0.2c0.6,0,1.2-0.1,2-0.1l-0.2-3c-0.8,0.1-1.4,0.1-1.8,0.1s-0.5,0-0.6,0L343.2,264.8z M340.2,262.9
	c0.7,0.9,1.8,1.6,3,1.9l1.1-2.9c-0.4-0.1-0.8-0.3-1-0.6L340.2,262.9z M339.2,259.9c0.1,0.6,0.2,1.2,0.4,1.6c0.1,0.5,0.3,0.9,0.6,1.3
	l3.2-1.6c0-0.1-0.1-0.2-0.2-0.5s-0.2-0.8-0.3-1.4L339.2,259.9z M338.2,256.3c0,0,0.2,0.2,0.4,0.9c0.2,0.6,0.4,1.5,0.6,2.7l3.6-0.6
	c-0.2-1.2-0.4-2.2-0.7-3c-0.2-0.8-0.5-1.5-1.2-2.1L338.2,256.3z M336.5,255.9c0.6-0.1,1.3,0,1.8,0.5l2.8-2.1
	c-1.3-1.2-3.3-1.7-5.3-1.4L336.5,255.9z M333,258.3c1.1-0.9,1.9-1.5,2.5-1.9s0.9-0.5,0.9-0.5l-0.7-3c-1,0.2-1.8,0.6-2.5,1.1
	c-0.8,0.5-1.7,1.2-2.7,2.1L333,258.3z M333.1,258.3L333.1,258.3l-2.6-2.1l0,0L333.1,258.3z M330,260.2c0.6-0.2,1.1-0.5,1.5-0.8
	s0.9-0.7,1.5-1.1l-2.5-2.2c-0.6,0.5-1,0.8-1.3,1s-0.4,0.3-0.5,0.3L330,260.2z M326.1,260.4c1.3,0.3,2.6,0.3,3.9-0.1l-1.3-2.8
	c-0.4,0.1-0.9,0.2-1.3,0L326.1,260.4z M323,258.7c0.6,0.4,1.1,0.8,1.5,1c0.5,0.3,0.9,0.5,1.5,0.7l1.3-2.9c-0.1,0-0.2-0.1-0.5-0.3
	c-0.3-0.2-0.7-0.5-1.3-0.9L323,258.7z M319.5,256.2l3.5,2.4l2.4-2.3l-3.5-2.4L319.5,256.2z M317,254c0.3,0.4,0.7,0.8,1.1,1.1
	s0.9,0.7,1.5,1.1l2.4-2.3c-0.6-0.4-1-0.7-1.3-0.9s-0.4-0.3-0.4-0.4L317,254z M316.6,250.8c-0.3,1.1-0.2,2.2,0.4,3.2l3.3-1.5
	c-0.2-0.3-0.3-0.7-0.1-1.1L316.6,250.8z M318.4,248.1c-0.5,0.5-0.8,1-1.1,1.4c-0.3,0.4-0.6,0.8-0.7,1.3l3.6,0.7
	c0-0.1,0.1-0.2,0.3-0.5c0.2-0.3,0.5-0.7,1-1.2L318.4,248.1z M320.8,244.9c0,0.1-0.1,0.3-0.5,0.8c-0.4,0.6-1,1.3-1.9,2.3l3,1.7
	c0.9-1,1.6-1.9,2.1-2.5c0.5-0.7,0.9-1.4,1-2.2L320.8,244.9z M320,243.6c0.6,0.3,0.9,0.8,0.8,1.3l3.7,0.1c0.1-1.6-0.8-3.2-2.4-4
	L320,243.6z M315.5,243.3c1.6,0,2.6,0,3.4,0.1s1,0.1,1.1,0.2l2-2.6c-0.8-0.4-1.8-0.6-2.7-0.6c-1-0.1-2.2-0.1-3.7-0.1L315.5,243.3z
	 M311.8,243c0.6,0.2,1.1,0.3,1.7,0.3s1.2,0,2,0l0.1-3c-0.8,0-1.4,0-1.8,0s-0.5-0.1-0.6-0.1L311.8,243z M309,240.8
	c0.6,1,1.6,1.8,2.8,2.2l1.5-2.8c-0.4-0.1-0.7-0.4-0.9-0.7L309,240.8z M308.4,237.8c0,0.6,0.1,1.2,0.2,1.6c0.1,0.5,0.2,0.9,0.5,1.4
	l3.3-1.4c0-0.1-0.1-0.2-0.1-0.5c-0.1-0.3-0.1-0.8-0.1-1.4L308.4,237.8z M308.1,234l0.3,3.8l3.7-0.3l-0.3-3.8L308.1,234z
	 M308.3,230.9c-0.2,0.5-0.2,1-0.2,1.4c0,0.5,0,1,0.1,1.7l3.7-0.3c-0.1-0.7-0.1-1.1-0.1-1.5c0-0.3,0-0.4,0.1-0.5L308.3,230.9z
	 M310.7,228.3c-1.1,0.6-2,1.5-2.4,2.6l3.5,0.9c0.1-0.4,0.4-0.7,0.8-0.9L310.7,228.3z M314.3,227.4c-0.8,0.1-1.4,0.2-2,0.3
	s-1.1,0.3-1.7,0.6l1.9,2.6c0.1,0,0.2-0.1,0.6-0.2s0.9-0.2,1.7-0.3L314.3,227.4z M314.5,227.4L314.5,227.4l0.2,3l0,0L314.5,227.4z
	 M314.5,227.4L314.5,227.4l0.2,3l0,0L314.5,227.4z M318.7,226.5c-0.1,0-0.3,0.2-1,0.3c-0.8,0.2-1.8,0.3-3.3,0.6l0.6,3
	c1.5-0.2,2.7-0.4,3.6-0.6s1.8-0.5,2.6-1L318.7,226.5z M319.3,225c0.1,0.5-0.1,1.1-0.6,1.5l2.4,2.2c1.5-1.1,2.2-2.8,1.8-4.4
	L319.3,225z M316.5,222.2c1.1,0.9,1.8,1.5,2.3,2s0.6,0.7,0.6,0.8l3.6-0.7c-0.2-0.8-0.7-1.4-1.3-2c-0.6-0.6-1.4-1.3-2.4-2.2
	L316.5,222.2z M314.2,219.8c0.2,0.5,0.6,0.9,0.9,1.2c0.4,0.3,0.8,0.7,1.3,1.2l2.7-2.1c-0.6-0.5-0.9-0.8-1.2-1.1
	c-0.2-0.2-0.3-0.4-0.3-0.4L314.2,219.8z M314.1,216.6c-0.5,1-0.4,2.2,0,3.2l3.4-1.2c-0.2-0.3-0.2-0.7,0-1.1L314.1,216.6z M316.3,214
	c-0.5,0.5-1,0.9-1.3,1.3c-0.4,0.4-0.7,0.8-0.9,1.3l3.5,0.9c0-0.1,0.1-0.2,0.3-0.4c0.2-0.3,0.6-0.6,1.1-1.1L316.3,214z M319.4,211.1
	l-3.1,3l2.8,1.9l3.1-3L319.4,211.1z M319.4,211.1L319.4,211.1l2.8,1.9l0,0L319.4,211.1z M322.2,208.9c-0.6,0.2-1,0.6-1.4,0.9
	s-0.8,0.8-1.4,1.3l2.8,1.9c0.5-0.5,0.9-0.9,1.2-1.1c0.3-0.2,0.4-0.3,0.5-0.3L322.2,208.9z M326,208.5c-1.3-0.2-2.7-0.1-3.9,0.5
	l1.7,2.7c0.4-0.2,0.9-0.2,1.3-0.2L326,208.5z M329.3,209.9c-0.6-0.4-1.2-0.7-1.7-0.9s-1-0.4-1.6-0.6l-0.9,3c0.1,0,0.2,0.1,0.6,0.2
	c0.3,0.2,0.8,0.4,1.5,0.8L329.3,209.9z M333.1,211.8c-0.1,0-0.3,0-1-0.4c-0.7-0.3-1.5-0.8-2.8-1.5l-2.2,2.5c1.2,0.7,2.2,1.3,3,1.6
	c0.8,0.4,1.7,0.7,2.7,0.8L333.1,211.8z M334.8,211.1c-0.4,0.5-1,0.7-1.7,0.7l-0.3,3c2,0.1,3.9-0.7,5-2.1L334.8,211.1z M335.2,207.4
	c-0.1,1.3-0.1,2.1-0.2,2.8s-0.2,0.9-0.3,0.9l3.1,1.6c0.5-0.7,0.7-1.5,0.8-2.3c0.1-0.8,0.2-1.8,0.2-3H335.2z M335.7,204.3
	c-0.2,0.5-0.4,0.9-0.4,1.4c-0.1,0.5-0.1,1-0.1,1.7h3.7c0-0.7,0.1-1.1,0.1-1.5c0-0.3,0.1-0.4,0.1-0.5L335.7,204.3z M338.4,202
	c-1.2,0.5-2.2,1.3-2.7,2.4l3.4,1.1c0.2-0.3,0.5-0.6,0.9-0.8L338.4,202z M342.2,201.4c-0.8,0.1-1.5,0.1-2,0.2
	c-0.6,0.1-1.1,0.2-1.7,0.4l1.6,2.7c0.1,0,0.2-0.1,0.6-0.1c0.4-0.1,0.9-0.1,1.8-0.2L342.2,201.4z M346.8,201l-4.7,0.4l0.2,3l4.7-0.4
	L346.8,201z M350.6,201c-0.6-0.1-1.2-0.2-1.7-0.2c-0.6,0-1.2,0.1-2,0.1l0.2,3c0.8-0.1,1.4-0.1,1.8-0.1s0.5,0,0.6,0L350.6,201z
	 M353.6,203c-0.7-0.9-1.8-1.6-3-1.9l-1.1,2.9c0.4,0.1,0.8,0.3,1,0.6L353.6,203z M359.8,231.9c0.4,5.8-5,11-12.1,11.6l0.2,3
	c9.1-0.7,16.1-7.4,15.5-14.9L359.8,231.9z M346.1,222.3c7.1-0.5,13.2,3.8,13.7,9.6l3.7-0.3c-0.6-7.5-8.5-13-17.6-12.3L346.1,222.3z
	 M334,233.9c-0.4-5.8,5-11,12.1-11.6l-0.2-3c-9.1,0.7-16.1,7.4-15.5,14.9L334,233.9z M347.7,243.5c-7.1,0.5-13.2-3.8-13.7-9.6
	l-3.7,0.3c0.6,7.5,8.5,13,17.6,12.3L347.7,243.5z"/>
<rect x="156.7" y="703" class="st1" width="83.7" height="8.3"/>
<rect x="156.7" y="717.2" class="st1" width="83.7" height="8.3"/>
<rect x="156.7" y="731.5" class="st1" width="83.7" height="8.3"/>
</svg>
